
        <svg xmlns="http://www.w3.org/2000/svg" xmlns:xlink="http://www.w3.org/1999/xlink" version="1.1" width="3171.4285714285716" 
        height="1375.7971076811057" viewBox="0 0 3171.4285714285716 1375.7971076811057">
			
			<g transform="scale(8.571428571428571) translate(10, 10)">
				<defs id="SvgjsDefs1001"></defs><g id="SvgjsG1007" featureKey="symbolGroupContainer" transform="matrix(1,0,0,1,84,0)" fill="#000000"><rect width="183" height="92" rx="8"></rect></g><g id="SvgjsG1008" featureKey="monogramFeature-0" transform="matrix(1.4622325337346511,0,0,1.4622325337346511,104,-11.232449647128838)" fill="#ffffff"><path d="M0 17.94 l25.8 0 c11.22 0.48 20.1 9.72 20.1 21 c0 11.34 -8.88 20.58 -20.1 21.06 l-25.8 0 l0 -32.7 l25.8 0 c6.06 0.48 10.86 5.46 10.86 11.7 c0 6 -4.62 11.16 -10.62 11.64 l-16.68 0 l0 -14.76 l4.68 0 l0 10.08 l11.76 -0.06 c3.54 -0.3 6.24 -3.36 6.24 -6.9 c0 -3.06 -1.92 -5.58 -4.62 -6.6 c-1.02 -0.42 -1.62 -0.42 -3.24 -0.42 l-19.5 0 l0 23.34 l21.12 0 c8.58 -0.48 15.42 -7.56 15.42 -16.38 c0 -8.7 -6.84 -15.84 -15.42 -16.32 l-25.8 0 l0 -4.68 z M87.12 41.34 c-23.82 0 -24.18 -0.06 -24.48 -0.06 l-0.12 0 c-6 -0.48 -10.62 -5.58 -10.62 -11.64 c0 -6.48 5.22 -11.7 11.7 -11.7 l25.2 0 c5.04 0 9.12 4.08 9.12 9.18 l0 4.86 l-34.14 0 l-0.06 0 l-0.06 0 c-1.38 -0.06 -2.28 -1.08 -2.28 -2.34 s0.96 -2.28 2.22 -2.34 l29.64 0 l0 -0.12 c0 -2.58 -1.98 -4.56 -4.56 -4.56 l-25.08 0 c-3.84 0 -7.02 3.12 -7.02 7.02 c0 3.6 2.7 6.48 6.12 6.96 c23.94 0 24.18 0.06 24.6 0.06 c6 0.48 10.62 5.64 10.62 11.64 c0 6.48 -5.22 11.7 -11.64 11.7 l-25.26 0 c-5.04 0 -9.12 -4.08 -9.12 -9.12 l0 -4.92 l34.38 0 c2.94 0.18 2.94 4.5 0 4.68 l-29.7 0 l0 0.12 c0 2.58 1.98 4.56 4.56 4.56 l25.14 0 c3.78 0 7.02 -3 7.02 -7.02 c0 -3.6 -2.7 -6.48 -6.18 -6.96 z"></path></g><g id="SvgjsG1009" featureKey="nameFeature-0" transform="matrix(0.9341304762511368,0,0,0.9341304762511368,0,101.98612282686055)" fill="#000000"><path d="M0 11.96 l17.2 0 c7.48 0.32 13.4 6.48 13.4 14 c0 7.56 -5.92 13.72 -13.4 14.04 l-17.2 0 l0 -21.8 l17.2 0 c4.04 0.32 7.24 3.64 7.24 7.8 c0 4 -3.08 7.44 -7.08 7.76 l-11.12 0 l0 -9.84 l3.12 0 l0 6.72 l7.84 -0.04 c2.36 -0.2 4.16 -2.24 4.16 -4.6 c0 -2.04 -1.28 -3.72 -3.08 -4.4 c-0.68 -0.28 -1.08 -0.28 -2.16 -0.28 l-13 0 l0 15.56 l14.08 0 c5.72 -0.32 10.28 -5.04 10.28 -10.92 c0 -5.8 -4.56 -10.56 -10.28 -10.88 l-17.2 0 l0 -3.12 z M59.164 27.56 c-15.88 0 -16.12 -0.04 -16.32 -0.04 l-0.08 0 c-4 -0.32 -7.08 -3.72 -7.08 -7.76 c0 -4.32 3.48 -7.8 7.8 -7.8 l16.8 0 c3.36 0 6.08 2.72 6.08 6.12 l0 3.24 l-22.76 0 l-0.04 0 l-0.04 0 c-0.92 -0.04 -1.52 -0.72 -1.52 -1.56 s0.64 -1.52 1.48 -1.56 l19.76 0 l0 -0.08 c0 -1.72 -1.32 -3.04 -3.04 -3.04 l-16.72 0 c-2.56 0 -4.68 2.08 -4.68 4.68 c0 2.4 1.8 4.32 4.08 4.64 c15.96 0 16.12 0.04 16.4 0.04 c4 0.32 7.08 3.76 7.08 7.76 c0 4.32 -3.48 7.8 -7.76 7.8 l-16.84 0 c-3.36 0 -6.08 -2.72 -6.08 -6.08 l0 -3.28 l22.92 0 c1.96 0.12 1.96 3 0 3.12 l-19.8 0 l0 0.08 c0 1.72 1.32 3.04 3.04 3.04 l16.76 0 c2.52 0 4.68 -2 4.68 -4.68 c0 -2.4 -1.8 -4.32 -4.12 -4.64 z M85.848 10.72 c8.4 0 15.24 6.84 15.24 15.28 s-6.84 15.24 -15.24 15.24 c-8.44 0 -15.28 -6.8 -15.28 -15.24 s6.84 -15.28 15.28 -15.28 z M85.848 38.16 c6.72 0 12.16 -5.44 12.16 -12.16 s-5.44 -12.2 -12.16 -12.2 c-6.76 0 -12.2 5.48 -12.2 12.2 s5.44 12.16 12.2 12.16 z M85.848 16.88 c5 0 9.08 4.12 9.08 9.12 s-4.08 9.08 -9.08 9.08 s-9.12 -4.08 -9.12 -9.08 s4.12 -9.12 9.12 -9.12 z M85.848 32 c3.32 0 6 -2.68 6 -6 c0 -3.36 -2.68 -6.04 -6 -6.04 c-3.36 0 -6.04 2.68 -6.04 6.04 c0 3.32 2.68 6 6.04 6 z M138.372 11.96 l0 9.36 l-21.24 0 l0 3.12 l15.76 0 l0 3.12 l-18.88 0 l0 -9.36 l21.24 0 l0 -3.12 l-24.36 0 l0 21.8 l3.12 0 l0 -6.24 l3.12 0 l0 9.36 l-9.36 0 l0 -28.04 l30.6 0 z M143.456 21.32 l0 -9.36 l30.6 0 l0 9.36 l-7.52 0 l0 -3.12 l4.4 0 l0 -3.12 l-24.36 0 l0 3.12 l10.64 0 l-0.04 18.68 l3.12 0 l0 -18.68 l3.12 0 l0 21.8 l-9.36 0 l0 -18.68 l-10.6 0 z M204.22 27.56 c-15.88 0 -16.12 -0.04 -16.32 -0.04 l-0.08 0 c-4 -0.32 -7.08 -3.72 -7.08 -7.76 c0 -4.32 3.48 -7.8 7.8 -7.8 l16.8 0 c3.36 0 6.08 2.72 6.08 6.12 l0 3.24 l-22.76 0 l-0.04 0 l-0.04 0 c-0.92 -0.04 -1.52 -0.72 -1.52 -1.56 s0.64 -1.52 1.48 -1.56 l19.76 0 l0 -0.08 c0 -1.72 -1.32 -3.04 -3.04 -3.04 l-16.72 0 c-2.56 0 -4.68 2.08 -4.68 4.68 c0 2.4 1.8 4.32 4.08 4.64 c15.96 0 16.12 0.04 16.4 0.04 c4 0.32 7.08 3.76 7.08 7.76 c0 4.32 -3.48 7.8 -7.76 7.8 l-16.84 0 c-3.36 0 -6.08 -2.72 -6.08 -6.08 l0 -3.28 l22.92 0 c1.96 0.12 1.96 3 0 3.12 l-19.8 0 l0 0.08 c0 1.72 1.32 3.04 3.04 3.04 l16.76 0 c2.52 0 4.68 -2 4.68 -4.68 c0 -2.4 -1.8 -4.32 -4.12 -4.64 z M218.104 21.32 l0 -9.36 l30.6 0 l0 9.36 l-7.52 0 l0 -3.12 l4.4 0 l0 -3.12 l-24.36 0 l0 3.12 l10.64 0 l-0.04 18.68 l3.12 0 l0 -18.68 l3.12 0 l0 21.8 l-9.36 0 l0 -18.68 l-10.6 0 z M285.748 11.96 l0 12.88 c0 8.32 -6.8 15.16 -15.2 15.16 c-8.24 0 -14.84 -6.48 -15.16 -14.64 l0 -13.4 l9.16 0 l0 12.88 c0 3.32 2.68 6 6 6 s5.88 -2.6 6 -5.84 l0 -13.04 l3.04 0 l0 12.88 c0 4.96 -4.04 9.04 -9.04 9.04 c-4.92 0 -9 -4 -9 -8.96 l-0.04 0 l0 -9.88 l-3 0 l0 10 c0.12 6.56 5.48 11.84 12.04 11.84 c6.68 0 12.04 -5.4 12.04 -12.04 l0 -12.88 l3.16 0 z M292.432 11.96 l17.2 0 c7.48 0.32 13.4 6.48 13.4 14 c0 7.56 -5.92 13.72 -13.4 14.04 l-17.2 0 l0 -21.8 l17.2 0 c4.04 0.32 7.24 3.64 7.24 7.8 c0 4 -3.08 7.44 -7.08 7.76 l-11.12 0 l0 -9.84 l3.12 0 l0 6.72 l7.84 -0.04 c2.36 -0.2 4.16 -2.24 4.16 -4.6 c0 -2.04 -1.28 -3.72 -3.08 -4.4 c-0.68 -0.28 -1.08 -0.28 -2.16 -0.28 l-13 0 l0 15.56 l14.08 0 c5.72 -0.32 10.28 -5.04 10.28 -10.92 c0 -5.8 -4.56 -10.56 -10.28 -10.88 l-17.2 0 l0 -3.12 z M337.476 40 l-9.36 0 l0 -28.04 l9.36 0 l0 21.8 l-3.12 0 l0 -18.68 l-3.12 0 l0 21.8 l6.24 0 l0 3.12 z M359.44 10.72 c8.4 0 15.24 6.84 15.24 15.28 s-6.84 15.24 -15.24 15.24 c-8.44 0 -15.28 -6.8 -15.28 -15.24 s6.84 -15.28 15.28 -15.28 z M359.44 38.16 c6.72 0 12.16 -5.44 12.16 -12.16 s-5.44 -12.2 -12.16 -12.2 c-6.76 0 -12.2 5.48 -12.2 12.2 s5.44 12.16 12.2 12.16 z M359.44 16.88 c5 0 9.08 4.12 9.08 9.12 s-4.08 9.08 -9.08 9.08 s-9.12 -4.08 -9.12 -9.08 s4.12 -9.12 9.12 -9.12 z M359.44 32 c3.32 0 6 -2.68 6 -6 c0 -3.36 -2.68 -6.04 -6 -6.04 c-3.36 0 -6.04 2.68 -6.04 6.04 c0 3.32 2.68 6 6.04 6 z"></path></g>
			</g>
		</svg>
	